<svg xmlns="http://www.w3.org/2000/svg" width="44" height="44" viewBox="0 0 44 44" fill="none"><g clip-path="url(#clip0_510_6)"><path d="M15.5585 6.7989L14.3711 7.32432L13.2026 7.84029L10.2852 1.23874L11.4554 0.721828L12.641 0.197266L15.5585 6.7989Z" fill="#FFB74F"></path><path d="M40.5171 33.0932L25.8569 33.3112L25.8483 33.3206L15.8398 44.0005L15.9498 10.9023V10.874L40.5171 33.0932Z" fill="#0087FF"></path><path d="M12.6388 0.197266L15.5563 6.7989L14.3689 7.32432L11.4531 0.721828L12.6388 0.197266Z" fill="#FF9B00"></path><path d="M40.5166 33.0932L25.8564 33.3112L25.8478 33.3206L15.9492 10.9023V10.874L40.5166 33.0932Z" fill="#0E7CDD"></path><path d="M4.41288 7.39384L3.48047 9.79492L10.2084 12.4076L11.1408 10.0065L4.41288 7.39384Z" fill="#FFB74F"></path><path d="M10.2722 15.4153L3.66406 18.3174L4.69979 20.6758L11.3079 17.7737L10.2722 15.4153Z" fill="#FFB74F"></path><path d="M21.1444 -0.000330596L18.5469 6.7334L20.9501 7.66043L23.5476 0.926702L21.1444 -0.000330596Z" fill="#FF9B00"></path><path d="M29.7233 6.80004L23.1289 9.73242L24.1754 12.0859L30.7699 9.15347L29.7233 6.80004Z" fill="#FF9B00"></path></g><defs><clipPath id="clip0_510_6"><rect width="44" height="44" fill="white"></rect></clipPath></defs></svg>