<svg xmlns="http://www.w3.org/2000/svg" width="40" height="40" viewBox="0 0 40 40" fill="none"><g clip-path="url(#clip0_510_8)"><path d="M0.622736 27.7082C0.631486 27.7082 0.640236 27.708 0.649064 27.7077C5.74391 27.4956 10.5916 26.4463 15.0574 24.5884C15.3752 24.4563 15.5256 24.0915 15.3934 23.7738C15.2613 23.456 14.8966 23.3052 14.5788 23.4377C10.2489 25.2388 5.54485 26.2565 0.597267 26.4623C0.253361 26.4767 -0.0137487 26.767 0.000548167 27.1109C0.0145325 27.446 0.29047 27.7082 0.622736 27.7082Z" fill="#005284"></path><path d="M37.6558 0.76988C37.5873 0.623552 37.4955 0.497068 37.335 0.424177C37.116 0.324724 36.9111 0.387536 36.7038 0.466989C36.5551 0.524021 30.8886 2.69496 30.8307 2.71715C30.5093 2.84035 30.3486 3.20066 30.4716 3.52207C30.5949 3.84347 30.9551 4.00394 31.2765 3.88105L36.035 2.05785C34.6223 5.62332 31.1534 11.7274 25.0629 16.9581C24.8018 17.1823 24.7719 17.5757 24.9961 17.8368C25.1194 17.9804 25.2936 18.054 25.4691 18.054C25.6129 18.054 25.7573 18.0046 25.8748 17.9036C28.9714 15.2443 31.6783 12.1546 33.9203 8.72027C35.2297 6.71465 36.3394 4.62621 37.093 2.77363L38.7947 7.21519C38.8898 7.46324 39.1261 7.61551 39.3768 7.61551C39.4509 7.61551 39.5263 7.60222 39.5997 7.5741C39.921 7.4509 40.0817 7.09058 39.9586 6.76918C39.9365 6.71137 37.674 0.808943 37.6558 0.76988Z" fill="#005284"></path><path d="M7.4775 38.3802V30.9024C7.4775 30.5588 7.19797 30.2793 6.85438 30.2793H1.86922C1.52563 30.2793 1.24609 30.5589 1.24609 30.9024V38.3802H7.4775Z" fill="#BBE8FF"></path><path d="M38.3232 38.3798V15.3233C38.3232 14.9797 38.0436 14.7002 37.7001 14.7002H32.7149C32.3713 14.7002 32.0918 14.9798 32.0918 15.3233V38.3798H38.3232Z" fill="#FFD000"></path><path d="M37.7005 13.4541H32.7154C31.6846 13.4541 30.8459 14.2928 30.8459 15.3236V38.3801H29.288V25.0891C29.288 24.745 29.0091 24.466 28.6649 24.466H27.819C28.0024 23.4844 27.7135 22.4288 26.9529 21.6681L22.9697 17.685C23.3099 17.1768 23.4927 16.5796 23.4927 15.9543C23.4927 15.121 23.1682 14.3377 22.5791 13.7486L21.3691 12.5387C21.4538 12.0252 21.4986 11.4986 21.4986 10.9616C21.4986 5.6357 17.1657 1.30273 11.8398 1.30273C6.51383 1.30273 2.18109 5.6357 2.18109 10.9616C2.18109 16.2874 6.51398 20.6204 11.8398 20.6204C12.3831 20.6204 12.9158 20.5746 13.4348 20.488L14.6373 21.6903C15.2264 22.2795 16.0098 22.6041 16.843 22.6041C17.4633 22.6041 18.0556 22.424 18.561 22.0891L20.9755 24.5037C20.7357 24.5904 20.5639 24.8195 20.5639 25.0892V38.3802H19.006V29.0329C19.006 28.0021 18.1674 27.1634 17.1366 27.1634H12.1514C11.1205 27.1634 10.282 28.0021 10.282 29.0329V38.3802H8.72406V30.9023C8.72406 29.8716 7.88547 29.0329 6.85461 29.0329H1.86945C0.838672 29.0329 0 29.8716 0 30.9023V39.0033C0 39.3474 0.278984 39.6264 0.623125 39.6264H38.9469C39.291 39.6264 39.57 39.3474 39.57 39.0033V15.3236C39.57 14.2928 38.7313 13.4541 37.7005 13.4541ZM32.7154 14.7005H37.7005C38.0441 14.7005 38.3237 14.9801 38.3237 15.3236V38.3801H32.0922V15.3236C32.0922 14.98 32.3718 14.7005 32.7154 14.7005ZM22.1842 25.7123L22.5465 26.0746C23.1595 26.6876 23.9641 26.9944 24.767 26.9944C25.5642 26.9944 26.3598 26.692 26.9651 26.0868C27.083 25.9688 27.1891 25.8434 27.2841 25.7123H28.0417V38.3802H21.8102V25.7123H22.1842ZM3.42734 10.9616C3.42734 6.32289 7.20117 2.54906 11.8398 2.54906C16.4785 2.54906 20.2523 6.32289 20.2523 10.9616C20.2523 15.6002 16.4785 19.3741 11.8398 19.3741C7.20117 19.3741 3.42734 15.6002 3.42734 10.9616ZM21.0232 13.9552L21.6978 14.6298C22.0516 14.9836 22.2465 15.4539 22.2465 15.9543C22.2465 16.4546 22.0516 16.925 21.6978 17.2788L18.1676 20.8091C17.8138 21.1628 17.3434 21.3577 16.843 21.3577C16.3427 21.3577 15.8723 21.1628 15.5185 20.809L14.8492 20.1397C17.7638 19.1817 20.07 16.8719 21.0232 13.9552ZM22.1306 18.6086L26.0715 22.5495C26.8071 23.2851 26.8127 24.4766 26.0838 25.2055C25.3549 25.9345 24.1634 25.9289 23.4278 25.1932L19.4869 21.2523L22.1306 18.6086ZM12.1514 28.4097H17.1366C17.4802 28.4097 17.7597 28.6893 17.7597 29.0328V38.3801H11.5282V29.0329C11.5283 28.6893 11.8078 28.4097 12.1514 28.4097ZM1.86945 30.2791H6.85461C7.1982 30.2791 7.47773 30.5588 7.47773 30.9023V38.3801H1.24633V30.9023C1.24633 30.5588 1.52586 30.2791 1.86945 30.2791Z" fill="#005284"></path><path d="M17.7587 38.3805V29.0333C17.7587 28.6897 17.4792 28.4102 17.1356 28.4102H12.1505C11.8069 28.4102 11.5273 28.6898 11.5273 29.0333V38.3805H17.7587V38.3805Z" fill="white"></path><path d="M28.042 38.3797V25.7119H27.2845C27.1895 25.8429 27.0834 25.9684 26.9654 26.0864C26.3602 26.6916 25.5645 26.9939 24.7673 26.9939C23.9643 26.9939 23.1598 26.6871 22.5468 26.0742L22.1845 25.7119H21.8105V38.3797L28.042 38.3797Z" fill="#FFD000"></path><path d="M23.4292 25.193C24.1648 25.9287 25.3563 25.9343 26.0852 25.2053C26.8141 24.4764 26.8085 23.2849 26.0729 22.5493L22.132 18.6084L19.4883 21.2521L23.4292 25.193Z" fill="#60B4FF"></path><path d="M16.8434 21.3577C17.3437 21.3577 17.8141 21.1627 18.1679 20.809L21.6981 17.2787C22.0519 16.9249 22.2468 16.4545 22.2468 15.9542C22.2468 15.4538 22.052 14.9835 21.6981 14.6298L21.0235 13.9551C20.0704 16.8717 17.7641 19.1816 14.8496 20.1396L15.5189 20.8089C15.8727 21.1627 16.343 21.3577 16.8434 21.3577Z" fill="#FFC550"></path><path d="M11.8391 9.40387C12.6995 9.40387 13.397 8.70638 13.397 7.84598C13.397 6.98558 12.6995 6.28809 11.8391 6.28809C10.9787 6.28809 10.2812 6.98558 10.2812 7.84598C10.2812 8.70638 10.9787 9.40387 11.8391 9.40387Z" fill="white"></path><path d="M20.2527 10.9613C20.2527 6.32266 16.4789 2.54883 11.8402 2.54883C7.20156 2.54883 3.42773 6.32266 3.42773 10.9613C3.42773 15.6 7.20156 19.3738 11.8402 19.3738C16.4789 19.3738 20.2527 15.6 20.2527 10.9613ZM11.8402 5.04141C13.3865 5.04141 14.6444 6.29937 14.6444 7.84555C14.6444 9.39172 13.3864 10.6497 11.8402 10.6497C10.2941 10.6497 9.03609 9.39172 9.03609 7.84555C9.03609 6.29937 10.2941 5.04141 11.8402 5.04141ZM13.3981 12.8308H10.2824C9.42344 12.8308 8.72453 13.5297 8.72453 14.3887V15.0118C8.72453 15.3559 8.44555 15.6349 8.1014 15.6349C7.75726 15.6349 7.47828 15.3559 7.47828 15.0118V14.3887C7.47828 12.8424 8.73625 11.5845 10.2824 11.5845H13.3982C14.9444 11.5845 16.2023 12.8425 16.2023 14.3887V15.0118C16.2023 15.3559 15.9234 15.6349 15.5792 15.6349C15.2351 15.6349 14.9561 15.3559 14.9561 15.0118V14.3887C14.956 13.5296 14.2571 12.8308 13.3981 12.8308Z" fill="white"></path><path d="M11.8393 10.6503C13.3855 10.6503 14.6434 9.3923 14.6434 7.84613C14.6434 6.29996 13.3855 5.04199 11.8393 5.04199C10.2931 5.04199 9.03516 6.29996 9.03516 7.84613C9.03516 9.3923 10.2931 10.6503 11.8393 10.6503ZM11.8393 6.28824C12.6983 6.28824 13.3972 6.98715 13.3972 7.84613C13.3972 8.70512 12.6983 9.40402 11.8393 9.40402C10.9803 9.40402 10.2814 8.70512 10.2814 7.84613C10.2814 6.98715 10.9803 6.28824 11.8393 6.28824Z" fill="#005284"></path><path d="M14.9543 15.0122C14.9543 15.3564 15.2333 15.6354 15.5774 15.6354C15.9216 15.6354 16.2005 15.3564 16.2005 15.0122V14.3891C16.2005 12.8429 14.9426 11.585 13.3964 11.585H10.2807C8.73445 11.585 7.47656 12.8429 7.47656 14.3891V15.0122C7.47656 15.3564 7.75555 15.6354 8.09969 15.6354C8.44383 15.6354 8.72281 15.3564 8.72281 15.0122V14.3891C8.72281 13.5301 9.42172 12.8312 10.2807 12.8312H13.3965C14.2555 12.8312 14.9544 13.5301 14.9544 14.3891V15.0122H14.9543Z" fill="#005284"></path></g><defs><clipPath id="clip0_510_8"><rect width="40" height="40" fill="white"></rect></clipPath></defs></svg>