<svg xmlns="http://www.w3.org/2000/svg" width="45" height="45" viewBox="0 0 45 45" fill="none"><g clip-path="url(#clip0_510_5)"><path d="M35.8594 29.5945V26.6555C35.8603 26.4789 35.8262 26.3038 35.7591 26.1405C35.6919 25.9771 35.593 25.8287 35.4681 25.7038C35.3432 25.5789 35.1948 25.48 35.0314 25.4128C34.8681 25.3457 34.693 25.3116 34.5164 25.3125C34.2274 25.313 33.9461 25.2192 33.7151 25.0453C33.4842 24.8715 33.3163 24.6271 33.2367 24.3492C32.9334 23.259 32.4965 22.2104 31.9359 21.2274C31.7934 20.9734 31.7382 20.6797 31.7788 20.3913C31.8195 20.1029 31.9537 19.8359 32.1609 19.6313C32.2862 19.5077 32.3856 19.3604 32.4534 19.1981C32.5213 19.0357 32.5562 18.8615 32.5562 18.6856C32.5562 18.5096 32.5213 18.3354 32.4534 18.1731C32.3856 18.0107 32.2862 17.8635 32.1609 17.7399L30.0516 15.6305C29.928 15.5053 29.7807 15.4059 29.6184 15.338C29.456 15.2701 29.2818 15.2352 29.1059 15.2352C28.9299 15.2352 28.7557 15.2701 28.5934 15.338C28.431 15.4059 28.2838 15.5053 28.1602 15.6305C27.9544 15.8383 27.6862 15.9728 27.3966 16.0135C27.107 16.0541 26.8121 15.9986 26.557 15.8555C25.574 15.295 24.5254 14.8581 23.4352 14.5547C23.1671 14.4693 22.9326 14.3019 22.7648 14.0761C22.597 13.8502 22.5044 13.5774 22.5 13.2961C22.5009 13.1195 22.4668 12.9444 22.3997 12.7811C22.3325 12.6177 22.2336 12.4693 22.1087 12.3444C21.9839 12.2195 21.8354 12.1206 21.6721 12.0535C21.5087 11.9863 21.3337 11.9522 21.157 11.9531H18.218C18.0414 11.9522 17.8663 11.9863 17.703 12.0535C17.5396 12.1206 17.3912 12.2195 17.2663 12.3444C17.1414 12.4693 17.0425 12.6177 16.9753 12.7811C16.9082 12.9444 16.8741 13.1195 16.875 13.2961C16.8755 13.5852 16.7817 13.8665 16.6078 14.0974C16.434 14.3283 16.1896 14.4963 15.9117 14.5758C14.8215 14.8792 13.7729 15.3161 12.7899 15.8766C12.5359 16.0191 12.2422 16.0743 11.9538 16.0337C11.6654 15.993 11.3984 15.8588 11.1938 15.6516C11.0702 15.5264 10.9229 15.4269 10.7606 15.3591C10.5982 15.2912 10.424 15.2563 10.2481 15.2563C10.0721 15.2563 9.89791 15.2912 9.73557 15.3591C9.57323 15.4269 9.42597 15.5264 9.30236 15.6516L7.19299 17.761C7.06777 17.8846 6.96835 18.0318 6.90049 18.1942C6.83264 18.3565 6.7977 18.5307 6.7977 18.7067C6.7977 18.8826 6.83264 19.0568 6.90049 19.2192C6.96835 19.3815 7.06777 19.5287 7.19299 19.6524C7.40078 19.8581 7.53532 20.1264 7.57596 20.416C7.6166 20.7055 7.56111 21.0005 7.41799 21.2555C6.85748 22.2386 6.42057 23.2871 6.11721 24.3774C6.03181 24.6454 5.86438 24.8799 5.63856 25.0477C5.41273 25.2155 5.13991 25.3081 4.85861 25.3125C4.68199 25.3116 4.50694 25.3457 4.34358 25.4128C4.18022 25.48 4.0318 25.5789 3.90691 25.7038C3.78202 25.8287 3.68313 25.9771 3.61597 26.1405C3.54881 26.3038 3.51471 26.4789 3.51564 26.6555V29.5945C3.51471 29.7712 3.54881 29.9462 3.61597 30.1096C3.68313 30.2729 3.78202 30.4214 3.90691 30.5462C4.0318 30.6711 4.18022 30.77 4.34358 30.8372C4.50694 30.9043 4.68199 30.9384 4.85861 30.9375C5.14765 30.9371 5.42896 31.0309 5.65989 31.2047C5.89082 31.3785 6.05877 31.6229 6.1383 31.9008C6.44167 32.991 6.87857 34.0396 7.43908 35.0227C7.58165 35.2766 7.63685 35.5703 7.59619 35.8587C7.55554 36.1471 7.42129 36.4141 7.21408 36.6188C7.08886 36.7424 6.98944 36.8896 6.92159 37.052C6.85373 37.2143 6.81879 37.3885 6.81879 37.5645C6.81879 37.7404 6.85373 37.9146 6.92159 38.077C6.98944 38.2393 7.08886 38.3866 7.21408 38.5102L9.32345 40.6195C9.44707 40.7448 9.59432 40.8442 9.75666 40.912C9.919 40.9799 10.0932 41.0148 10.2692 41.0148C10.4451 41.0148 10.6193 40.9799 10.7817 40.912C10.944 40.8442 11.0912 40.7448 11.2149 40.6195C11.4206 40.4118 11.6889 40.2772 11.9785 40.2366C12.268 40.1959 12.563 40.2514 12.818 40.3945C13.8011 40.955 14.8496 41.392 15.9399 41.6953C16.2079 41.7807 16.4424 41.9481 16.6102 42.174C16.778 42.3998 16.8706 42.6726 16.875 42.9539C16.8741 43.1305 16.9082 43.3056 16.9753 43.4689C17.0425 43.6323 17.1414 43.7807 17.2663 43.9056C17.3912 44.0305 17.5396 44.1294 17.703 44.1966C17.8663 44.2637 18.0414 44.2978 18.218 44.2969H21.157C21.3337 44.2978 21.5087 44.2637 21.6721 44.1966C21.8354 44.1294 21.9839 44.0305 22.1087 43.9056C22.2336 43.7807 22.3325 43.6323 22.3997 43.4689C22.4668 43.3056 22.5009 43.1305 22.5 42.9539C22.4996 42.6649 22.5934 42.3836 22.7672 42.1526C22.941 41.9217 23.1854 41.7538 23.4633 41.6742C24.5535 41.3709 25.6021 40.934 26.5852 40.3734C26.8391 40.2309 27.1328 40.1757 27.4212 40.2163C27.7096 40.257 27.9766 40.3912 28.1813 40.5984C28.3049 40.7237 28.4521 40.8231 28.6145 40.8909C28.7768 40.9588 28.951 40.9937 29.127 40.9937C29.3029 40.9937 29.4771 40.9588 29.6395 40.8909C29.8018 40.8231 29.9491 40.7237 30.0727 40.5984L32.182 38.4891C32.3073 38.3655 32.4067 38.2182 32.4745 38.0559C32.5424 37.8935 32.5773 37.7193 32.5773 37.5434C32.5773 37.3674 32.5424 37.1932 32.4745 37.0309C32.4067 36.8685 32.3073 36.7213 32.182 36.5977C31.9743 36.3919 31.8397 36.1237 31.7991 35.8341C31.7584 35.5445 31.8139 35.2496 31.957 34.9945C32.5175 34.0115 32.9545 32.9629 33.2578 31.8727C33.3432 31.6046 33.5106 31.3701 33.7365 31.2023C33.9623 31.0345 34.2351 30.9419 34.5164 30.9375C34.693 30.9384 34.8681 30.9043 35.0314 30.8372C35.1948 30.77 35.3432 30.6711 35.4681 30.5462C35.593 30.4214 35.6919 30.2729 35.7591 30.1096C35.8262 29.9462 35.8603 29.7712 35.8594 29.5945Z" fill="#96A1C3"></path><path d="M7.33318 36.4502C7.29823 36.512 7.25825 36.5708 7.21365 36.626C7.08844 36.7496 6.98902 36.8968 6.92116 37.0592C6.8533 37.2215 6.81836 37.3957 6.81836 37.5717C6.81836 37.7476 6.8533 37.9218 6.92116 38.0842C6.98902 38.2465 7.08844 38.3938 7.21365 38.5174L9.32302 40.6268C9.57485 40.8784 9.91626 41.0197 10.2722 41.0197C10.6282 41.0197 10.9696 40.8784 11.2215 40.6268C11.4161 40.4171 11.6721 40.2744 11.9527 40.2189C10.195 39.2563 8.62911 37.9789 7.33318 36.4502Z" fill="#647499"></path><path d="M16.1719 41.8008C16.3805 41.9138 16.5554 42.08 16.6789 42.2825C16.8024 42.4851 16.8701 42.7167 16.875 42.9539C16.8741 43.1305 16.9082 43.3056 16.9753 43.4689C17.0425 43.6323 17.1414 43.7807 17.2663 43.9056C17.3912 44.0305 17.5396 44.1294 17.7029 44.1965C17.8663 44.2637 18.0413 44.2978 18.218 44.2969H21.157C21.3337 44.2978 21.5087 44.2637 21.6721 44.1965C21.8354 44.1294 21.9838 44.0305 22.1087 43.9056C22.2336 43.7807 22.3325 43.6323 22.3997 43.4689C22.4668 43.3056 22.5009 43.1305 22.5 42.9539C22.5034 42.7164 22.5705 42.4842 22.6942 42.2814C22.8178 42.0786 22.9936 41.9126 23.2031 41.8008C20.8879 42.3183 18.4871 42.3183 16.1719 41.8008Z" fill="#647499"></path><path d="M3.51563 26.5293V29.5949C3.51478 29.8371 3.57975 30.0749 3.7036 30.2829C3.82745 30.491 4.00551 30.6615 4.21876 30.7762C3.79436 29.3986 3.55785 27.9701 3.51563 26.5293Z" fill="#647499"></path><path d="M35.1562 30.7762C35.3695 30.6615 35.5476 30.491 35.6714 30.2829C35.7953 30.0749 35.8602 29.8371 35.8594 29.5949C35.8594 26.1707 35.8594 26.7191 35.8594 26.5293C35.8172 27.9701 35.5807 29.3986 35.1562 30.7762Z" fill="#647499"></path><path d="M32.1609 36.6189C32.1149 36.5674 32.0748 36.5108 32.0414 36.4502C30.7455 37.9789 29.1796 39.2563 27.4219 40.2189C27.7089 40.2615 27.975 40.3945 28.1813 40.5986C28.3049 40.7238 28.4521 40.8233 28.6145 40.8911C28.7768 40.959 28.951 40.9939 29.127 40.9939C29.3029 40.9939 29.4771 40.959 29.6395 40.8911C29.8018 40.8233 29.949 40.7238 30.0727 40.5986L32.182 38.4893C32.4223 38.2359 32.5546 37.899 32.5506 37.5498C32.5467 37.2007 32.4069 36.8668 32.1609 36.6189Z" fill="#647499"></path><path d="M19.6875 35.8594C23.9591 35.8594 27.4219 32.3966 27.4219 28.125C27.4219 23.8534 23.9591 20.3906 19.6875 20.3906C15.4159 20.3906 11.9531 23.8534 11.9531 28.125C11.9531 32.3966 15.4159 35.8594 19.6875 35.8594Z" fill="#F5F7FF"></path><path d="M19.6875 33.75C17.8198 33.7488 16.0156 33.0717 14.6082 31.844C13.2008 30.6162 12.2852 28.9206 12.0305 27.0703C11.8742 28.1671 11.9554 29.2847 12.2685 30.3474C12.5816 31.4101 13.1194 32.3932 13.8454 33.23C14.5715 34.0668 15.4688 34.7379 16.4767 35.1978C17.4847 35.6577 18.5796 35.8958 19.6875 35.8958C20.7954 35.8958 21.8903 35.6577 22.8983 35.1978C23.9062 34.7379 24.8035 34.0668 25.5296 33.23C26.2556 32.3932 26.7934 31.4101 27.1065 30.3474C27.4196 29.2847 27.5008 28.1671 27.3445 27.0703C27.0898 28.9206 26.1742 30.6162 24.7668 31.844C23.3594 33.0717 21.5552 33.7488 19.6875 33.75Z" fill="#CCD3EB"></path><path d="M37.2656 23.9062H2.10938C1.33272 23.9062 0.703125 24.5358 0.703125 25.3125V26.7188C0.703125 27.4954 1.33272 28.125 2.10938 28.125H37.2656C38.0423 28.125 38.6719 27.4954 38.6719 26.7188V25.3125C38.6719 24.5358 38.0423 23.9062 37.2656 23.9062Z" fill="#CCD3EB"></path><path d="M37.266 26.0156H2.1098C1.79883 26.0146 1.49696 25.9106 1.25142 25.7197C1.00587 25.5289 0.830516 25.262 0.752773 24.9609C0.665166 25.5427 0.648639 26.133 0.703554 26.7188C0.703554 27.0917 0.851713 27.4494 1.11544 27.7131C1.37916 27.9768 1.73684 28.125 2.1098 28.125H37.266C37.639 28.125 37.9967 27.9768 38.2604 27.7131C38.5241 27.4494 38.6723 27.0917 38.6723 26.7188C38.7282 26.133 38.7117 25.5426 38.6231 24.9609C38.5453 25.262 38.37 25.5289 38.1244 25.7197C37.8789 25.9106 37.577 26.0146 37.266 26.0156Z" fill="#96A1C3"></path><path d="M19.6875 3.51562C15.212 3.51563 10.9197 5.29352 7.75507 8.4582C4.5904 11.6229 2.8125 15.9151 2.8125 20.3906V23.9062H36.5625V20.3906C36.5625 15.9151 34.7846 11.6229 31.6199 8.4582C28.4552 5.29352 24.163 3.51563 19.6875 3.51562Z" fill="#F5F7FF"></path><path d="M2.8125 21.7969H36.5625V23.9062H2.8125V21.7969Z" fill="#CCD3EB"></path><path d="M21.2906 0.703215H18.0844C17.7452 0.699381 17.4161 0.818242 17.1577 1.0379C16.8993 1.25755 16.729 1.5632 16.6781 1.89853L13.3594 23.9063H26.0156L22.6828 1.89853C22.6323 1.56561 22.464 1.26187 22.2085 1.04252C21.9531 0.82317 21.6274 0.702773 21.2906 0.703215Z" fill="#0074FF"></path><path d="M7.38427 6.68441C6.80223 6.10237 5.85857 6.10237 5.27653 6.68441C4.69449 7.26645 4.69449 8.21012 5.27653 8.79215L7.38924 10.9049C7.97128 11.4869 8.91495 11.4869 9.49699 10.9049C10.079 10.3228 10.079 9.37916 9.49699 8.79712L7.38427 6.68441Z" fill="#0074FF"></path><path d="M31.9947 6.67619L29.882 8.7889C29.3 9.37094 29.3 10.3146 29.882 10.8966C30.464 11.4787 31.4077 11.4787 31.9897 10.8966L34.1025 8.78393C34.6845 8.20189 34.6845 7.25823 34.1025 6.67619C33.5204 6.09415 32.5767 6.09415 31.9947 6.67619Z" fill="#0074FF"></path><path d="M19.6875 20.3906C23.5708 20.3906 26.7188 17.2426 26.7188 13.3594C26.7188 9.47612 23.5708 6.32812 19.6875 6.32812C15.8042 6.32812 12.6562 9.47612 12.6562 13.3594C12.6562 17.2426 15.8042 20.3906 19.6875 20.3906Z" fill="#CCD3EB"></path><path d="M19.6875 17.5781C22.0175 17.5781 23.9062 15.6893 23.9062 13.3594C23.9062 11.0294 22.0175 9.14062 19.6875 9.14062C17.3575 9.14062 15.4688 11.0294 15.4688 13.3594C15.4688 15.6893 17.3575 17.5781 19.6875 17.5781Z" fill="#F5F7FF"></path><path d="M44.297 20.9673V23.6955C44.295 25.4387 43.7532 27.1384 42.7459 28.5612C41.7387 29.9839 40.3155 31.0597 38.672 31.6408C37.0285 31.0597 35.6053 29.9839 34.5981 28.5612C33.5909 27.1384 33.049 25.4387 33.047 23.6955V20.9673C33.0437 20.8029 33.0982 20.6424 33.201 20.5139C33.3037 20.3855 33.4483 20.2971 33.6095 20.2642L34.0947 20.1658C35.6916 19.8617 37.1221 18.9838 38.1166 17.6978C38.1823 17.6131 38.2665 17.5446 38.3628 17.4974C38.459 17.4503 38.5648 17.4258 38.672 17.4258C38.7792 17.4258 38.885 17.4503 38.9813 17.4974C39.0775 17.5446 39.1618 17.6131 39.2275 17.6978C40.2301 18.9747 41.6569 19.8502 43.2494 20.1658L43.7345 20.2642C43.8957 20.2971 44.0403 20.3855 44.1431 20.5139C44.2459 20.6424 44.3003 20.8029 44.297 20.9673Z" fill="#0074FF"></path><path d="M14.2673 32.5966C14.1479 32.452 13.976 32.3608 13.7895 32.343C13.6029 32.3252 13.4169 32.3823 13.2723 32.5016C13.1278 32.621 13.0366 32.7929 13.0188 32.9794C13.001 33.166 13.0581 33.352 13.1774 33.4966C13.5211 33.9106 13.9025 34.2919 14.3165 34.6356C14.443 34.7404 14.6022 34.7977 14.7665 34.7973C14.9129 34.7994 15.0564 34.7557 15.1769 34.6723C15.2973 34.589 15.3887 34.47 15.4382 34.3322C15.4878 34.1943 15.4931 34.0445 15.4533 33.9035C15.4135 33.7625 15.3308 33.6374 15.2165 33.5458C14.8692 33.2618 14.5512 32.9438 14.2673 32.5966Z" fill="#033C59"></path><path d="M43.868 19.5892L43.3898 19.4908C41.9592 19.208 40.6772 18.4223 39.7758 17.2759C39.6398 17.1159 39.4706 16.9873 39.28 16.8991C39.0894 16.8109 38.8819 16.7652 38.6719 16.7652C38.4618 16.7652 38.2543 16.8109 38.0637 16.8991C37.8731 16.9873 37.7039 17.1159 37.568 17.2759C36.6666 18.4223 35.3845 19.208 33.9539 19.4908L33.4758 19.5892C33.1521 19.6535 32.8613 19.8296 32.6543 20.0867C32.4474 20.3438 32.3374 20.6655 32.3438 20.9955V23.2033H26.6203L25.8398 18.0283C26.4629 17.2046 26.9146 16.2644 27.1684 15.2633C27.4222 14.2622 27.473 13.2204 27.3177 12.1994C27.1623 11.1783 26.8041 10.1987 26.2641 9.31839C25.7241 8.43804 25.0132 7.67476 24.1734 7.07357L23.8289 4.76029C26.0322 5.34321 28.0863 6.38822 29.8547 7.82592L29.3836 8.28998C29.0076 8.70909 28.8065 9.25638 28.8218 9.81924C28.837 10.3821 29.0674 10.9177 29.4655 11.3158C29.8637 11.714 30.3993 11.9444 30.9621 11.9596C31.525 11.9749 32.0723 11.7738 32.4914 11.3978L32.85 11.0322C33.8751 12.4711 34.6545 14.0702 35.1562 15.7642C35.1826 15.8565 35.2268 15.9428 35.2865 16.018C35.3461 16.0933 35.42 16.156 35.5039 16.2027C35.5878 16.2494 35.6801 16.2791 35.7754 16.2901C35.8708 16.3011 35.9674 16.2933 36.0598 16.2669C36.1521 16.2406 36.2383 16.1964 36.3136 16.1367C36.3888 16.0771 36.4516 16.0032 36.4983 15.9193C36.5449 15.8354 36.5746 15.7431 36.5857 15.6477C36.5967 15.5524 36.5888 15.4558 36.5625 15.3634C35.9835 13.4449 35.0798 11.6398 33.8906 10.0267C34.6359 9.27436 35.2969 8.81029 35.2969 7.73451C35.2946 7.30134 35.1646 6.87847 34.923 6.51888C34.6815 6.15929 34.3392 5.87898 33.9391 5.71307C33.5389 5.54715 33.0987 5.50301 32.6736 5.58618C32.2485 5.66935 31.8573 5.87613 31.5492 6.1806L30.9094 6.82748C28.7863 5.0804 26.2809 3.85902 23.5969 3.26264L23.3789 1.7931C23.3026 1.29012 23.0471 0.831643 22.6595 0.502159C22.2719 0.172676 21.7782 -0.00561603 21.2695 0.000134903H18.0844C17.5757 -0.00561603 17.082 0.172676 16.6944 0.502159C16.3068 0.831643 16.0513 1.29012 15.975 1.7931L15.757 3.26264C13.1003 3.87039 10.6226 5.0912 8.52188 6.82748L7.88203 6.1806C7.46344 5.78088 6.90691 5.55783 6.32812 5.55783C5.74934 5.55783 5.19281 5.78088 4.77422 6.1806C4.36289 6.59314 4.1319 7.15195 4.1319 7.73451C4.1319 8.31708 4.36289 8.87588 4.77422 9.28842L5.47734 9.99154C3.26463 13.0051 2.08344 16.6522 2.10938 20.3908V23.2033C1.54993 23.2033 1.01341 23.4255 0.617822 23.8211C0.222237 24.2167 0 24.7532 0 25.3126L0 26.7189C0 27.2783 0.222237 27.8149 0.617822 28.2104C1.01341 28.606 1.54993 28.8283 2.10938 28.8283H2.8125V29.5947C2.81435 30.1368 3.03052 30.6561 3.41383 31.0394C3.79715 31.4227 4.31651 31.6389 4.85859 31.6408C4.99459 31.6399 5.12718 31.6833 5.23629 31.7645C5.3454 31.8457 5.42508 31.9602 5.46328 32.0908C5.77911 33.2357 6.23738 34.3365 6.82734 35.3673C6.89505 35.4874 6.92075 35.6265 6.90037 35.7628C6.87999 35.8991 6.8147 36.0247 6.71484 36.1197C6.52436 36.3097 6.37323 36.5355 6.27012 36.784C6.167 37.0326 6.11392 37.299 6.11392 37.5681C6.11392 37.8372 6.167 38.1036 6.27012 38.3522C6.37323 38.6007 6.52436 38.8265 6.71484 39.0166L8.82422 41.0908C9.21579 41.4606 9.73402 41.6667 10.2727 41.6667C10.8113 41.6667 11.3295 41.4606 11.7211 41.0908C11.8156 40.9925 11.9399 40.9283 12.0746 40.9079C12.2094 40.8876 12.3471 40.9123 12.4664 40.9783C13.5003 41.5671 14.6032 42.0252 15.75 42.3423C15.8805 42.3805 15.9951 42.4602 16.0763 42.5693C16.1574 42.6784 16.2009 42.811 16.2 42.947C16.1999 43.4855 16.4114 44.0025 16.7889 44.3865C17.1663 44.7705 17.6796 44.9909 18.218 45.0001H21.157C21.6991 44.9983 22.2185 44.7821 22.6018 44.3988C22.9851 44.0155 23.2013 43.4961 23.2031 42.9541C23.2022 42.8181 23.2457 42.6855 23.3269 42.5764C23.4081 42.4673 23.5226 42.3876 23.6531 42.3494C24.7981 42.0335 25.8989 41.5753 26.9297 40.9853C27.0503 40.92 27.189 40.8956 27.3246 40.9159C27.4603 40.9362 27.5858 41 27.682 41.0978C28.0736 41.4677 28.5918 41.6737 29.1305 41.6737C29.6691 41.6737 30.1873 41.4677 30.5789 41.0978L32.6531 38.9884C32.8445 38.7988 32.9963 38.5732 33.1 38.3246C33.2036 38.076 33.257 37.8093 33.257 37.54C33.257 37.2706 33.2036 37.004 33.1 36.7553C32.9963 36.5067 32.8445 36.2811 32.6531 36.0915C32.5538 35.9977 32.4888 35.8734 32.4684 35.7383C32.4481 35.6032 32.4735 35.4652 32.5406 35.3462C33.1294 34.3124 33.5876 33.2094 33.9047 32.0626C33.9429 31.9321 34.0226 31.8176 34.1317 31.7364C34.2408 31.6552 34.3734 31.6118 34.5094 31.6126C34.7875 31.6144 35.0629 31.5584 35.3183 31.4483C35.5736 31.3381 35.8034 31.1762 35.993 30.9728C36.7338 31.5304 37.5569 31.9693 38.4328 32.2736C38.5824 32.3297 38.7473 32.3297 38.8969 32.2736C40.6744 31.6473 42.2149 30.487 43.3074 28.9514C44.3999 27.4158 44.9911 25.58 45 23.6955V20.9673C44.9997 20.6422 44.8868 20.3271 44.6804 20.0759C44.474 19.8246 44.1869 19.6526 43.868 19.5892ZM33.0469 6.94701C33.2022 6.94755 33.354 6.99403 33.4829 7.0806C33.6119 7.16717 33.7125 7.28996 33.7718 7.43352C33.8312 7.57708 33.8468 7.73499 33.8166 7.88739C33.7865 8.03979 33.7119 8.17986 33.6023 8.28998L31.493 10.3994C31.4204 10.4729 31.3339 10.5313 31.2385 10.5712C31.1432 10.611 31.0409 10.6316 30.9375 10.6316C30.8341 10.6316 30.7318 10.611 30.6365 10.5712C30.5411 10.5313 30.4546 10.4729 30.382 10.3994C30.3085 10.3268 30.2501 10.2403 30.2102 10.1449C30.1703 10.0496 30.1498 9.94724 30.1498 9.84389C30.1498 9.74054 30.1703 9.63822 30.2102 9.54286C30.2501 9.44751 30.3085 9.36102 30.382 9.28842L32.4914 7.17904C32.564 7.10552 32.6505 7.04715 32.7459 7.00732C32.8412 6.96749 32.9435 6.94699 33.0469 6.94701ZM14.7656 19.322C16.1512 20.465 17.8913 21.0902 19.6875 21.0902C21.4837 21.0902 23.2238 20.465 24.6094 19.322L25.2 23.2033H14.175L14.7656 19.322ZM26.0156 13.3595C26.0156 14.6111 25.6445 15.8346 24.9491 16.8752C24.2538 17.9159 23.2655 18.727 22.1092 19.2059C20.9529 19.6849 19.6805 19.8102 18.4529 19.566C17.2254 19.3219 16.0978 18.7192 15.2128 17.8342C14.3278 16.9492 13.7251 15.8216 13.481 14.5941C13.2368 13.3665 13.3621 12.0942 13.8411 10.9378C14.32 9.78153 15.1311 8.79321 16.1718 8.09787C17.2124 7.40252 18.4359 7.03139 19.6875 7.03139C21.3658 7.03139 22.9754 7.6981 24.1622 8.88485C25.3489 10.0716 26.0156 11.6812 26.0156 13.3595ZM18.0844 1.40639H21.2906C21.4602 1.40447 21.6247 1.4639 21.754 1.57373C21.8832 1.68355 21.9683 1.83638 21.9937 2.00404L22.6336 6.22279C21.7019 5.83635 20.7032 5.63743 19.6945 5.63743C18.6859 5.63743 17.6871 5.83635 16.7555 6.22279L17.3953 2.00404C17.4204 1.83877 17.5035 1.68784 17.6298 1.57832C17.7561 1.46879 17.9172 1.40784 18.0844 1.40639ZM5.77266 7.17904C5.84526 7.10549 5.93174 7.04708 6.0271 7.00722C6.12245 6.96736 6.22477 6.94683 6.32812 6.94683C6.43148 6.94683 6.5338 6.96736 6.62915 7.00722C6.72451 7.04708 6.81099 7.10549 6.88359 7.17904L8.99297 9.28842C9.07458 9.35928 9.14073 9.44618 9.18729 9.54372C9.23386 9.64125 9.25986 9.74732 9.26366 9.85534C9.26746 9.96335 9.24899 10.071 9.20939 10.1716C9.16979 10.2721 9.10992 10.3635 9.03349 10.4399C8.95707 10.5163 8.86573 10.5762 8.76517 10.6158C8.6646 10.6554 8.55696 10.6739 8.44895 10.67C8.34094 10.6662 8.23486 10.6403 8.13733 10.5937C8.0398 10.5471 7.95289 10.481 7.88203 10.3994L5.77266 8.28998C5.6991 8.21738 5.6407 8.13089 5.60083 8.03554C5.56097 7.94018 5.54044 7.83786 5.54044 7.73451C5.54044 7.63116 5.56097 7.52884 5.60083 7.43349C5.6407 7.33813 5.6991 7.25164 5.77266 7.17904ZM3.51562 20.3908C3.51141 17.0338 4.5616 13.7602 6.51797 11.0322L6.88359 11.3978C7.3027 11.7738 7.85 11.9749 8.41285 11.9596C8.97571 11.9444 9.51131 11.714 9.90946 11.3158C10.3076 10.9177 10.538 10.3821 10.5532 9.81924C10.5685 9.25638 10.3674 8.70909 9.99141 8.28998L9.52031 7.82592C11.2887 6.38822 13.3428 5.34321 15.5461 4.76029L15.2016 7.07357C14.3618 7.67476 13.6509 8.43804 13.1109 9.31839C12.5709 10.1987 12.2126 11.1783 12.0573 12.1994C11.902 13.2204 11.9528 14.2622 12.2066 15.2633C12.4604 16.2644 12.9121 17.2046 13.5352 18.0283L12.7547 23.2033H3.51562V20.3908ZM1.40625 26.7189V25.3126C1.40625 25.1262 1.48033 24.9473 1.61219 24.8155C1.74405 24.6836 1.92289 24.6095 2.10938 24.6095H32.393C32.4912 25.5813 32.7452 26.531 33.1453 27.422H2.10938C1.92289 27.422 1.74405 27.3479 1.61219 27.2161C1.48033 27.0842 1.40625 26.9054 1.40625 26.7189ZM34.5164 30.2345C34.0743 30.2345 33.6443 30.3787 33.2915 30.6451C32.9388 30.9116 32.6826 31.2858 32.5617 31.7111C32.2721 32.747 31.8565 33.7435 31.3242 34.6783C31.1024 35.0647 31.0132 35.5131 31.0704 35.955C31.1275 36.3969 31.3278 36.8079 31.6406 37.1251C31.6999 37.1834 31.7471 37.2529 31.7792 37.3295C31.8114 37.4062 31.8279 37.4885 31.8279 37.5716C31.8279 37.6548 31.8114 37.7371 31.7792 37.8137C31.7471 37.8904 31.6999 37.9599 31.6406 38.0181L29.5312 40.1275C29.4109 40.2423 29.251 40.3063 29.0848 40.3063C28.9185 40.3063 28.7586 40.2423 28.6383 40.1275C28.3232 39.8096 27.9126 39.6037 27.4694 39.5415C27.0262 39.4793 26.5748 39.5641 26.1844 39.783C25.2527 40.3164 24.2584 40.7321 23.2242 41.0205C22.8116 41.1491 22.4507 41.4059 22.194 41.7536C21.9374 42.1013 21.7982 42.5219 21.7969 42.9541C21.7978 43.0383 21.7819 43.122 21.7501 43.2C21.7183 43.2781 21.6712 43.349 21.6116 43.4086C21.552 43.4682 21.4811 43.5153 21.403 43.5471C21.3249 43.5789 21.2413 43.5948 21.157 43.5939H18.218C18.1337 43.5948 18.0501 43.5789 17.972 43.5471C17.8939 43.5153 17.823 43.4682 17.7634 43.4086C17.7038 43.349 17.6567 43.2781 17.6249 43.2C17.5931 43.122 17.5772 43.0383 17.5781 42.9541C17.5781 42.512 17.434 42.0819 17.1675 41.7292C16.901 41.3764 16.5268 41.1202 16.1016 40.9994C15.0656 40.7097 14.0691 40.2941 13.1344 39.7619C12.7476 39.5412 12.2995 39.4527 11.8579 39.5098C11.4163 39.5669 11.0054 39.7665 10.6875 40.0783C10.568 40.1947 10.4078 40.2598 10.241 40.2598C10.0742 40.2598 9.91401 40.1947 9.79453 40.0783L7.68516 37.9689C7.62708 37.9107 7.58104 37.8416 7.54967 37.7656C7.5183 37.6896 7.50222 37.6082 7.50234 37.5259C7.50719 37.4256 7.53208 37.3272 7.57556 37.2366C7.61903 37.1461 7.6802 37.0651 7.75547 36.9986C8.04571 36.6818 8.22849 36.2815 8.27773 35.8547C8.32698 35.428 8.24017 34.9965 8.02969 34.622C7.50724 33.7048 7.09875 32.7273 6.81328 31.7111C6.69243 31.2858 6.43621 30.9116 6.08346 30.6451C5.7307 30.3787 5.30068 30.2345 4.85859 30.2345C4.77431 30.2355 4.69068 30.2196 4.61263 30.1877C4.53457 30.1559 4.46366 30.1088 4.40406 30.0492C4.34445 29.9896 4.29736 29.9187 4.26554 29.8406C4.23372 29.7626 4.21781 29.679 4.21875 29.5947V28.8283H11.2852C11.3257 29.3683 11.4199 29.903 11.5664 30.4244C11.6089 30.5764 11.7014 30.7098 11.829 30.8029C11.9565 30.896 12.1117 30.9435 12.2695 30.9376C12.3803 30.9418 12.4904 30.9197 12.591 30.8732C12.6915 30.8267 12.7797 30.757 12.8482 30.67C12.9168 30.5829 12.9638 30.4809 12.9854 30.3722C13.007 30.2636 13.0027 30.1513 12.9727 30.0447C12.8488 29.6476 12.7594 29.2407 12.7055 28.8283H26.7188C26.616 29.8509 26.2902 30.8386 25.7645 31.7218C25.2387 32.6049 24.5257 33.3621 23.6757 33.9399C22.8257 34.5177 21.8594 34.9022 20.8448 35.0662C19.8301 35.2302 18.7919 35.1698 17.8031 34.8892C17.6232 34.8389 17.4306 34.8621 17.2677 34.9537C17.1049 35.0453 16.9851 35.1979 16.9348 35.3779C16.8844 35.5578 16.9076 35.7504 16.9993 35.9133C17.0909 36.0761 17.2435 36.1959 17.4234 36.2462C18.6211 36.5845 19.8787 36.6536 21.1062 36.4487C22.3337 36.2437 23.5007 35.7698 24.5235 35.0608C25.5463 34.3519 26.3996 33.4254 27.0222 32.3479C27.6449 31.2704 28.0215 30.0684 28.125 28.8283H33.968C34.2636 29.2714 34.6003 29.6857 34.9734 30.0658C34.9129 30.1237 34.8411 30.1686 34.7624 30.1976C34.6838 30.2266 34.6001 30.2392 34.5164 30.2345ZM43.5938 23.6955C43.5914 25.2502 43.1204 26.7681 42.2425 28.0512C41.3645 29.3343 40.1202 30.3231 38.6719 30.8884C37.2236 30.3231 35.9793 29.3343 35.1013 28.0512C34.2233 26.7681 33.7524 25.2502 33.75 23.6955V20.9673L34.2281 20.8689C35.9872 20.5183 37.5632 19.5508 38.6719 18.1408C39.7806 19.5508 41.3565 20.5183 43.1156 20.8689L43.5938 20.9673V23.6955Z" fill="#033C59"></path><path d="M38.6728 26.7187C38.2931 26.7187 38.272 26.6132 36.7673 25.1085C36.6349 24.9761 36.5605 24.7966 36.5605 24.6093C36.5605 24.4221 36.6349 24.2425 36.7673 24.1101C36.8997 23.9777 37.0793 23.9033 37.2665 23.9033C37.4538 23.9033 37.6334 23.9777 37.7658 24.1101L38.6728 25.0242L40.9861 22.7039C41.1185 22.5715 41.2981 22.4971 41.4853 22.4971C41.6725 22.4971 41.8521 22.5715 41.9845 22.7039C42.1169 22.8363 42.1913 23.0158 42.1913 23.2031C42.1913 23.3903 42.1169 23.5699 41.9845 23.7023L39.172 26.5148C39.1063 26.58 39.0284 26.6315 38.9427 26.6665C38.8571 26.7015 38.7653 26.7192 38.6728 26.7187Z" fill="#F5F7FF"></path><path d="M7.73438 20.3906H5.625C5.43852 20.3906 5.25968 20.4647 5.12782 20.5966C4.99595 20.7284 4.92188 20.9073 4.92188 21.0938C4.92188 21.2802 4.99595 21.4591 5.12782 21.5909C5.25968 21.7228 5.43852 21.7969 5.625 21.7969H7.73438C7.92086 21.7969 8.0997 21.7228 8.23156 21.5909C8.36342 21.4591 8.4375 21.2802 8.4375 21.0938C8.4375 20.9073 8.36342 20.7284 8.23156 20.5966C8.0997 20.4647 7.92086 20.3906 7.73438 20.3906Z" fill="#96A1C3"></path><path d="M5.625 18.9844H7.73438C7.92086 18.9844 8.0997 18.9103 8.23156 18.7784C8.36342 18.6466 8.4375 18.4677 8.4375 18.2812C8.4375 18.0948 8.36342 17.9159 8.23156 17.7841C8.0997 17.6522 7.92086 17.5781 7.73438 17.5781H5.625C5.43852 17.5781 5.25968 17.6522 5.12782 17.7841C4.99595 17.9159 4.92188 18.0948 4.92188 18.2812C4.92188 18.4677 4.99595 18.6466 5.12782 18.7784C5.25968 18.9103 5.43852 18.9844 5.625 18.9844Z" fill="#96A1C3"></path><path d="M43.5938 14.0625C43.4547 14.0625 43.3187 14.1037 43.2031 14.181C43.0875 14.2583 42.9974 14.3681 42.9441 14.4966C42.8909 14.625 42.877 14.7664 42.9041 14.9028C42.9313 15.0392 42.9982 15.1645 43.0966 15.2628C43.1949 15.3611 43.3202 15.4281 43.4566 15.4552C43.593 15.4824 43.7343 15.4684 43.8628 15.4152C43.9913 15.362 44.1011 15.2719 44.1784 15.1563C44.2556 15.0406 44.2969 14.9047 44.2969 14.7656C44.2969 14.5791 44.2228 14.4003 44.0909 14.2684C43.9591 14.1366 43.7802 14.0625 43.5938 14.0625Z" fill="#96A1C3"></path><path d="M40.7812 14.0625C40.6422 14.0625 40.5062 14.1037 40.3906 14.181C40.275 14.2583 40.1849 14.3681 40.1316 14.4966C40.0784 14.625 40.0645 14.7664 40.0916 14.9028C40.1188 15.0392 40.1857 15.1645 40.2841 15.2628C40.3824 15.3611 40.5077 15.4281 40.6441 15.4552C40.7805 15.4824 40.9218 15.4684 41.0503 15.4152C41.1788 15.362 41.2886 15.2719 41.3659 15.1563C41.4431 15.0406 41.4844 14.9047 41.4844 14.7656C41.4844 14.5791 41.4103 14.4003 41.2784 14.2684C41.1466 14.1366 40.9677 14.0625 40.7812 14.0625Z" fill="#96A1C3"></path><path d="M44.2969 11.9531C44.2969 11.7666 44.2228 11.5878 44.0909 11.4559C43.9591 11.3241 43.7802 11.25 43.5938 11.25H42.1875C42.001 11.25 41.8222 11.3241 41.6903 11.4559C41.5585 11.5878 41.4844 11.7666 41.4844 11.9531C41.4844 12.1396 41.5585 12.3184 41.6903 12.4503C41.8222 12.5822 42.001 12.6562 42.1875 12.6562H43.5938C43.7802 12.6562 43.9591 12.5822 44.0909 12.4503C44.2228 12.3184 44.2969 12.1396 44.2969 11.9531Z" fill="#96A1C3"></path></g><defs><clipPath id="clip0_510_5"><rect width="45" height="45" fill="white"></rect></clipPath></defs></svg>