<svg xmlns="http://www.w3.org/2000/svg" width="40" height="40" viewBox="0 0 40 40" fill="none"><g clip-path="url(#clip0_510_10)"><path d="M20.0004 20.6669C15.2138 20.6669 11.334 19.7734 11.334 18.667V22.6669C11.334 23.3667 12.874 23.9735 15.2072 24.3335C16.7944 24.5613 18.3966 24.6727 20.0004 24.6668C21.6042 24.6727 23.206 24.5613 24.7935 24.3335C27.1268 23.9735 28.6668 23.3667 28.6668 22.6669V18.667C28.6668 19.7734 24.7867 20.6669 20.0004 20.6669Z" fill="#9BC9FF"></path><path d="M32.0004 8.66776C31.3217 8.66808 30.6466 8.76248 29.9936 8.94769C30.0004 8.85427 30.0004 8.76085 30.0004 8.66776C30.0018 5.02431 27.5412 1.84016 24.0153 0.922539C20.4893 0.00524795 16.7889 1.58593 15.0142 4.7678C14.3349 4.26652 13.512 3.99764 12.6676 4.00122C10.4584 4.00122 8.66774 5.79186 8.66774 8.00111C8.66611 8.23808 8.68857 8.47505 8.73447 8.70747C8.49098 8.68078 8.24587 8.66743 8.00109 8.66776C3.95108 8.66776 0.667969 11.9509 0.667969 16.0009C0.667969 20.0506 3.95108 23.334 8.00109 23.334H32.0004C32.2269 23.334 32.447 23.3206 32.667 23.3005C36.5575 22.9287 39.4725 19.5711 39.2948 15.6669C39.117 11.7627 35.9085 8.68403 32.0004 8.66776ZM20.0007 20.6674C15.2141 20.6674 11.3343 19.7739 11.3343 18.6675C11.3343 17.5607 15.2141 16.6675 20.0007 16.6675C24.7871 16.6675 28.6672 17.5607 28.6672 18.6675C28.6672 19.7739 24.7871 20.6674 20.0007 20.6674Z" fill="#9BC9FF"></path><path d="M20.0004 28.0009C15.2138 28.0009 11.334 27.1074 11.334 26.001V30.0009C11.334 30.7007 12.874 31.3075 15.2072 31.6675C16.7944 31.8953 18.3966 32.0067 20.0004 32.0008C21.6042 32.0067 23.206 31.8953 24.7935 31.6675C27.1268 31.3075 28.6668 30.7007 28.6668 30.0009V26.001C28.6668 27.1074 24.7867 28.0009 20.0004 28.0009Z" fill="#9BC9FF"></path><path d="M20.0004 35.3339C15.2138 35.3339 11.334 34.4404 11.334 33.334V37.3339C11.334 38.4403 15.2138 39.3338 20.0004 39.3338C24.7867 39.3338 28.6668 38.4403 28.6668 37.3339V33.334C28.6668 34.4404 24.7867 35.3339 20.0004 35.3339Z" fill="#9BC9FF"></path><path d="M20.001 16.001C19.0457 16.001 10.668 16.0755 10.668 18.6676V22.6674C10.668 23.3513 11.2278 23.9034 12.3632 24.3341C11.2285 24.7647 10.668 25.3165 10.668 26.0007V30.0006C10.668 30.6845 11.2278 31.2365 12.3632 31.6672C11.2285 32.0978 10.668 32.6496 10.668 33.3338V37.3337C10.668 39.9254 19.0457 40.0003 20.001 40.0003C20.9564 40.0003 29.3341 39.9254 29.3341 37.3337V33.3338C29.3341 32.6496 28.7732 32.0978 27.6388 31.6672C28.7732 31.2365 29.3341 30.6845 29.3341 30.0006V26.0007C29.3341 25.3165 28.7732 24.7647 27.6388 24.3341C28.7732 23.9034 29.3341 23.3513 29.3341 22.6674V18.6676C29.3341 16.0755 20.9564 16.001 20.001 16.001ZM27.9608 18.6676C27.952 18.6773 27.9435 18.6874 27.9328 18.6982C27.922 18.7089 27.8973 18.7294 27.8768 18.7454C27.8559 18.7613 27.8266 18.7815 27.798 18.8C27.7694 18.8189 27.7453 18.8336 27.7153 18.8508C27.6854 18.8681 27.6453 18.8889 27.6066 18.9081C27.5682 18.9273 27.5402 18.9426 27.4982 18.9602C27.4562 18.9775 27.408 18.9996 27.3602 19.0194L27.2267 19.0728L27.0601 19.1321C27.0073 19.15 26.9556 19.1682 26.8986 19.1861C26.842 19.204 26.7707 19.2255 26.7046 19.2453C26.6389 19.2655 26.5835 19.2815 26.5194 19.2987C26.4556 19.316 26.3723 19.3375 26.2967 19.3567C26.2215 19.3762 26.1594 19.3922 26.0861 19.4094C26.0129 19.4267 25.9214 19.4468 25.8368 19.4654L25.6027 19.5155C25.5129 19.5334 25.4175 19.5513 25.3228 19.5689C25.2388 19.5849 25.1568 19.6002 25.0696 19.6155C24.969 19.6327 24.8629 19.6493 24.7574 19.6653C24.6676 19.6802 24.5793 19.6942 24.4862 19.7082C24.3762 19.7242 24.2594 19.7388 24.1441 19.7535C24.0481 19.7662 23.9534 19.7795 23.8535 19.7906C23.735 19.8056 23.609 19.8173 23.4856 19.8306C23.3815 19.8414 23.2802 19.8534 23.1728 19.8635C23.0449 19.8755 22.9095 19.8853 22.777 19.896C22.667 19.9048 22.5602 19.9139 22.4469 19.9221C22.3037 19.9322 22.1536 19.9393 22.0055 19.9481C21.8955 19.954 21.7891 19.9615 21.6761 19.966C21.4997 19.9748 21.3154 19.9794 21.1322 19.9856C21.0417 19.9856 20.9541 19.9921 20.8617 19.994C20.5821 19.9986 20.2953 20.0009 20.001 20.0009C19.7068 20.0009 19.42 19.9973 19.141 19.9908C19.0483 19.9908 18.961 19.9846 18.8702 19.982C18.6869 19.9761 18.503 19.9716 18.3263 19.9628C18.2136 19.9582 18.1069 19.9507 17.9972 19.9449C17.8491 19.9361 17.699 19.9286 17.5558 19.9188C17.4425 19.9107 17.3357 19.9013 17.2225 19.8928C17.089 19.882 16.9559 19.872 16.8263 19.8599C16.7192 19.8501 16.6177 19.8381 16.5138 19.8274C16.3905 19.814 16.2645 19.802 16.1457 19.7873C16.0457 19.7759 15.951 19.7626 15.855 19.7502C15.7398 19.7356 15.6232 19.7206 15.5132 19.7046C15.4198 19.6906 15.3319 19.6766 15.2417 19.662C15.1366 19.6461 15.0305 19.6295 14.9299 19.6122C14.8423 19.5969 14.7603 19.5813 14.6763 19.5653C14.5819 19.5481 14.4865 19.5302 14.3964 19.5119L14.1623 19.4621C14.0777 19.4433 13.9924 19.4247 13.913 19.4061C13.8339 19.3873 13.7717 19.3713 13.7024 19.3534C13.6331 19.3355 13.551 19.3147 13.4797 19.2955C13.4084 19.2759 13.3551 19.26 13.2945 19.2421C13.234 19.2242 13.1611 19.2027 13.1005 19.1828C13.04 19.1627 12.9918 19.1467 12.9391 19.1288L12.7724 19.0696L12.6393 19.0162C12.5911 18.996 12.5439 18.9761 12.5012 18.9566C12.4586 18.9374 12.427 18.9221 12.3925 18.9049C12.3577 18.8873 12.3173 18.8661 12.2838 18.8476C12.2506 18.8287 12.2272 18.8134 12.2011 18.7968C12.1751 18.7802 12.1458 18.76 12.1227 18.7421C12.0992 18.7242 12.0833 18.7102 12.0667 18.6949C12.0498 18.6793 12.0472 18.6741 12.0384 18.664C12.5218 18.1529 15.3837 17.3307 19.9984 17.3307C24.6129 17.3307 27.4774 18.1529 27.9608 18.6676ZM16.3345 25.1472L16.4012 25.1534C17.5971 25.2745 18.7986 25.3347 20.001 25.334C21.1895 25.3344 22.3776 25.2751 23.5602 25.1566C23.5976 25.1527 23.637 25.1504 23.6734 25.1465C23.887 25.1238 24.0908 25.0958 24.2975 25.0694C24.4615 25.0486 24.6308 25.032 24.7916 25.0085C26.8928 25.3418 27.7368 25.7946 27.9581 26.0007C27.9487 26.0104 27.9415 26.0199 27.9308 26.03C27.9132 26.0463 27.8947 26.0616 27.8755 26.0759C27.8514 26.0944 27.8247 26.1133 27.7947 26.1325C27.7648 26.152 27.7427 26.1644 27.714 26.1813C27.6854 26.1979 27.6421 26.2198 27.6027 26.2399C27.5633 26.2598 27.536 26.2738 27.4959 26.2904C27.4562 26.3073 27.4048 26.3304 27.3553 26.3513C27.3062 26.3718 27.2694 26.3858 27.2222 26.4033C27.1746 26.4206 27.1128 26.4431 27.0555 26.4632C26.9982 26.4831 26.95 26.4994 26.8934 26.5173C26.8368 26.5352 26.7668 26.5567 26.7014 26.5759C26.6362 26.5951 26.578 26.612 26.5129 26.6299C26.4475 26.6478 26.3687 26.668 26.2941 26.6872L26.0793 26.7406C26.0008 26.7591 25.9175 26.7774 25.8348 26.7953C25.7522 26.8132 25.6789 26.8291 25.5962 26.8457C25.5136 26.8626 25.4143 26.8812 25.3215 26.8984C25.2287 26.916 25.1522 26.9307 25.0627 26.946C24.9735 26.9613 24.8629 26.9792 24.7587 26.9951C24.6549 27.0111 24.5754 27.0244 24.4794 27.0384C24.3723 27.0537 24.2587 27.0687 24.1461 27.0827C24.0468 27.0957 23.9462 27.109 23.8469 27.1211C23.7294 27.1351 23.6061 27.1478 23.4843 27.1605C23.3795 27.1712 23.277 27.1833 23.1683 27.193C23.0348 27.2051 22.9017 27.2152 22.7682 27.2259C22.6608 27.2344 22.5556 27.2445 22.445 27.2519C22.2982 27.2617 22.1448 27.2698 21.9928 27.2786C21.887 27.2838 21.7835 27.2913 21.6748 27.2959C21.4954 27.3047 21.3089 27.3099 21.1237 27.3151C21.0349 27.3151 20.9502 27.3219 20.8604 27.3239C20.5811 27.3304 20.2946 27.334 20.001 27.334C19.7071 27.334 19.4206 27.3304 19.1417 27.3239C19.0515 27.3239 18.9669 27.3177 18.8783 27.3151C18.6931 27.3099 18.5063 27.3047 18.3269 27.2959C18.2182 27.2913 18.115 27.2838 18.0089 27.2786C17.8569 27.2698 17.7036 27.2617 17.5571 27.2519C17.4464 27.2445 17.3409 27.2344 17.2339 27.2259C17.1004 27.2152 16.9624 27.2051 16.8338 27.193C16.7251 27.1833 16.6225 27.1712 16.5177 27.1605C16.3957 27.1478 16.2723 27.1351 16.1551 27.1211C16.0526 27.109 15.9549 27.0957 15.8556 27.0827C15.7437 27.0687 15.6304 27.0537 15.5223 27.0384C15.4263 27.0244 15.3358 27.0098 15.243 26.9951C15.1506 26.9805 15.037 26.9632 14.939 26.946C14.841 26.9284 14.7658 26.9144 14.6805 26.8984C14.5953 26.8825 14.4937 26.8639 14.4058 26.8457C14.3179 26.8278 14.2457 26.8125 14.1672 26.7953C14.0884 26.778 14.0012 26.7591 13.9224 26.7406L13.7079 26.6872C13.6331 26.668 13.5592 26.6491 13.4892 26.6299C13.4192 26.6107 13.3626 26.5938 13.3004 26.5759C13.2385 26.558 13.1672 26.5371 13.1087 26.5173C13.0497 26.4971 12.9993 26.4811 12.9465 26.4632C12.8938 26.4453 12.8326 26.4232 12.7799 26.4033C12.7272 26.3832 12.6897 26.3685 12.6464 26.3513C12.6031 26.334 12.5497 26.3106 12.5058 26.2904C12.4619 26.2705 12.4332 26.2565 12.399 26.2399C12.3652 26.2233 12.3219 26.2005 12.2877 26.1813C12.2539 26.1618 12.2324 26.1485 12.2073 26.1325C12.1819 26.1166 12.1507 26.0944 12.1266 26.0759C12.1074 26.0616 12.0888 26.0463 12.0712 26.03C12.0605 26.0199 12.0533 26.0104 12.0439 26.0007C12.2653 25.7946 13.1106 25.3418 15.2105 25.0085C15.3531 25.0294 15.5064 25.0447 15.6532 25.0632C15.8784 25.0919 16.1004 25.1225 16.3345 25.1472ZM16.3345 32.4803L16.4012 32.4865C17.5971 32.6076 18.7986 32.6678 20.001 32.6672C21.1895 32.6675 22.3776 32.6082 23.5602 32.4897C23.5976 32.4858 23.637 32.4836 23.6734 32.4797C23.887 32.4569 24.0908 32.4289 24.2975 32.4025C24.4615 32.3817 24.6308 32.3651 24.7916 32.3416C26.8928 32.675 27.7368 33.1278 27.9581 33.3338C27.9487 33.3436 27.9415 33.353 27.9308 33.3631C27.9132 33.3794 27.8947 33.3947 27.8755 33.409C27.8514 33.4275 27.8247 33.4464 27.7947 33.4656C27.7648 33.4852 27.7427 33.4975 27.714 33.5145C27.6854 33.5311 27.6421 33.5529 27.6027 33.573C27.5633 33.5929 27.536 33.6069 27.4959 33.6235C27.4562 33.6404 27.4048 33.6635 27.3553 33.6844C27.3062 33.7049 27.2694 33.7189 27.2222 33.7365C27.1746 33.7537 27.1128 33.7762 27.0555 33.7964C26.9982 33.8162 26.95 33.8325 26.8934 33.8504C26.8368 33.8683 26.7668 33.8898 26.7014 33.909C26.6362 33.9282 26.578 33.9451 26.5129 33.963C26.4475 33.9809 26.3687 34.0011 26.2941 34.0203L26.0793 34.0737C26.0008 34.0922 25.9175 34.1105 25.8348 34.1284C25.7522 34.1463 25.6789 34.1622 25.5962 34.1788C25.5136 34.1958 25.4143 34.2143 25.3215 34.2316C25.2287 34.2491 25.1522 34.2638 25.0627 34.2791C24.9735 34.2944 24.8629 34.3123 24.7587 34.3282C24.6549 34.3442 24.5754 34.3575 24.4794 34.3715C24.3723 34.3868 24.2587 34.4018 24.1461 34.4158C24.0468 34.4288 23.9462 34.4422 23.8469 34.4542C23.7294 34.4682 23.6061 34.4809 23.4843 34.4936C23.3795 34.5043 23.277 34.5164 23.1683 34.5261C23.0348 34.5382 22.9017 34.5483 22.7682 34.559C22.6608 34.5675 22.5556 34.5776 22.445 34.5851C22.2982 34.5948 22.1448 34.603 21.9928 34.6118C21.887 34.617 21.7835 34.6245 21.6748 34.629C21.4954 34.6378 21.3089 34.643 21.1237 34.6482C21.0349 34.6482 20.9502 34.655 20.8604 34.657C20.5811 34.6635 20.2946 34.6671 20.001 34.6671C19.7071 34.6671 19.4206 34.6635 19.1417 34.657C19.0515 34.657 18.9669 34.6508 18.8783 34.6482C18.6931 34.643 18.5063 34.6378 18.3269 34.629C18.2182 34.6245 18.115 34.617 18.0089 34.6118C17.8569 34.603 17.7036 34.5948 17.5571 34.5851C17.4464 34.5776 17.3409 34.5675 17.2339 34.559C17.1004 34.5483 16.9624 34.5382 16.8338 34.5261C16.7251 34.5164 16.6225 34.5043 16.5177 34.4936C16.3957 34.4809 16.2723 34.4682 16.1551 34.4542C16.0526 34.4422 15.9549 34.4288 15.8556 34.4158C15.7437 34.4018 15.6304 34.3868 15.5223 34.3715C15.4263 34.3575 15.3358 34.3429 15.243 34.3282C15.1506 34.3136 15.037 34.2963 14.939 34.2791C14.841 34.2615 14.7658 34.2475 14.6805 34.2316C14.5953 34.2156 14.4937 34.1971 14.4058 34.1788C14.3179 34.1609 14.2457 34.1456 14.1672 34.1284C14.0884 34.1111 14.0012 34.0922 13.9224 34.0737L13.7079 34.0203C13.6331 34.0011 13.5592 33.9822 13.4892 33.963C13.4192 33.9438 13.3626 33.9269 13.3004 33.909C13.2385 33.8911 13.1672 33.8702 13.1087 33.8504C13.0497 33.8302 12.9993 33.8143 12.9465 33.7964C12.8938 33.7784 12.8326 33.7563 12.7799 33.7365C12.7272 33.7163 12.6897 33.7016 12.6464 33.6844C12.6031 33.6671 12.5497 33.6437 12.5058 33.6235C12.4619 33.6036 12.4332 33.5897 12.399 33.573C12.3652 33.5564 12.3219 33.5337 12.2877 33.5145C12.2539 33.4949 12.2324 33.4816 12.2073 33.4656C12.1819 33.4497 12.1507 33.4275 12.1266 33.409C12.1074 33.3947 12.0888 33.3794 12.0712 33.3631C12.0605 33.353 12.0533 33.3436 12.0439 33.3338C12.2653 33.1278 13.1106 32.675 15.2105 32.3416C15.3531 32.3625 15.5064 32.3778 15.6532 32.3963C15.8784 32.425 16.1004 32.4556 16.3345 32.4803ZM28.0008 37.2888C27.6593 37.7943 24.7629 38.667 20.001 38.667C15.2391 38.667 12.3424 37.7943 12.0013 37.2888V34.8478L12.014 34.853C12.1471 34.9129 12.2845 34.9688 12.4287 35.0229L12.5345 35.0623C12.6865 35.1163 12.8424 35.1684 13.0051 35.2162C13.1685 35.2644 13.3385 35.3083 13.5103 35.3497L13.6285 35.3783C13.9797 35.4617 14.3453 35.533 14.717 35.5955L14.8352 35.615C15.2111 35.6755 15.5897 35.7263 15.9683 35.7696L16.0796 35.7823C16.4543 35.8236 16.8224 35.8575 17.1749 35.8842L17.2824 35.8923C17.6323 35.9184 17.965 35.9382 18.2716 35.9529L18.3562 35.9568C18.6589 35.9711 18.9324 35.9802 19.1697 35.987H19.2364C19.4643 35.9929 19.6524 35.9955 19.7937 35.9962H20.2041C20.3457 35.9962 20.5336 35.9962 20.7617 35.987H20.8282C21.0654 35.9802 21.3389 35.9711 21.6416 35.9568L21.7262 35.9529C22.0329 35.9382 22.3655 35.9184 22.7155 35.8923L22.8229 35.8842C23.1754 35.8575 23.5436 35.8236 23.9182 35.7823L24.0296 35.7696C24.4049 35.7263 24.7834 35.6755 25.1627 35.615L25.2808 35.5955C25.6529 35.533 26.0181 35.4623 26.3693 35.3783L26.4875 35.3497C26.6594 35.3077 26.8286 35.2638 26.9914 35.2162H26.9959C27.1593 35.1684 27.3146 35.1169 27.4627 35.0629L27.5695 35.0235C27.7134 34.9695 27.8533 34.9135 27.9842 34.8536L28.0008 34.8478V37.2888ZM24.6955 31.0077C22.3353 31.3316 19.9483 31.412 17.5717 31.2476C16.7804 31.1945 16.0164 31.1145 15.3052 31.0077C12.8678 30.6311 12.0745 30.0943 12.0013 30.0006V27.5146L12.014 27.5198C12.1471 27.5797 12.2845 27.6357 12.4287 27.6898L12.5345 27.7291C12.6865 27.7832 12.8424 27.8353 13.0051 27.8831C13.1685 27.9313 13.3385 27.9752 13.5103 28.0166L13.6285 28.0452C13.9797 28.1285 14.3453 28.1998 14.717 28.2623L14.8352 28.2819C15.2111 28.3424 15.5897 28.3932 15.9683 28.4365L16.0796 28.4492C16.4543 28.4905 16.8224 28.5244 17.1749 28.5511L17.2824 28.5592C17.6323 28.5852 17.965 28.6051 18.2716 28.6197L18.3562 28.6237C18.6589 28.638 18.9324 28.6471 19.1697 28.6539H19.2364C19.4643 28.6598 19.6524 28.6624 19.7937 28.663H20.2041C20.3457 28.663 20.5323 28.663 20.7575 28.6539H20.835C21.0697 28.6477 21.3395 28.6386 21.6383 28.6253L21.737 28.6204C22.0404 28.6057 22.3681 28.5859 22.7135 28.5605L22.833 28.5511C23.1822 28.5244 23.5462 28.4912 23.9176 28.4498L24.0403 28.4358C24.4114 28.3938 24.786 28.3431 25.1581 28.2832L25.2916 28.261C25.4755 28.2304 25.6587 28.1946 25.8394 28.1618C26.0175 28.1266 26.1923 28.0872 26.3641 28.0465L26.4976 28.0153C26.6626 27.9739 26.826 27.9313 26.9836 27.8818L27.0021 27.8766C27.1619 27.8297 27.314 27.7786 27.4627 27.7259L27.5809 27.6826C27.7209 27.6299 27.8559 27.5758 27.9806 27.5172L28.0014 27.5091L28.0093 29.9312C27.9276 30.0943 27.134 30.6317 24.6955 31.0077ZM24.6955 23.6746C22.3353 23.9985 19.9483 24.0789 17.5717 23.9145C16.7804 23.8614 16.0164 23.7813 15.3052 23.6746C12.8678 23.298 12.0745 22.7612 12.0013 22.6674V20.1815L12.014 20.1867C12.1471 20.2466 12.2845 20.3026 12.4287 20.3566L12.5345 20.396C12.6865 20.4501 12.8424 20.5021 13.0051 20.55C13.1685 20.5982 13.3385 20.6421 13.5103 20.6835L13.6285 20.7121C13.9797 20.7954 14.3453 20.8667 14.717 20.9292L14.8352 20.9487C15.2111 21.0093 15.5897 21.0601 15.9683 21.1034L16.0796 21.1161C16.4543 21.1574 16.8224 21.1913 17.1749 21.2179L17.2824 21.2261C17.6323 21.2521 17.965 21.272 18.2716 21.2866L18.3562 21.2905C18.6589 21.3049 18.9324 21.314 19.1697 21.3208H19.2364C19.4643 21.3267 19.6524 21.3293 19.7937 21.3299H20.2041C20.3457 21.3299 20.5323 21.3299 20.7575 21.3208H20.835C21.0697 21.3146 21.3395 21.3055 21.6383 21.2922L21.737 21.2873C22.0404 21.2726 22.3681 21.2528 22.7135 21.2274L22.833 21.2179C23.1822 21.1913 23.5462 21.1581 23.9176 21.1167L24.0403 21.1027C24.4114 21.0607 24.786 21.0099 25.1581 20.95L25.2916 20.9279C25.4755 20.8973 25.6587 20.8615 25.8394 20.8286C26.0175 20.7935 26.1923 20.7541 26.3641 20.7134L26.4976 20.6822C26.6626 20.6408 26.826 20.5982 26.9836 20.5487L27.0021 20.5435C27.1619 20.4966 27.314 20.4455 27.4627 20.3928L27.5809 20.3495C27.7209 20.2967 27.8559 20.2427 27.9806 20.1841L28.0014 20.176L28.0093 22.5981C27.9276 22.7612 27.134 23.2986 24.6955 23.6746Z" fill="black"></path><path d="M32.001 8.00057C31.5482 8.00057 31.0964 8.03898 30.6505 8.1158C30.4145 4.4079 27.8413 1.26281 24.2535 0.297341C20.6657 -0.668126 16.8618 0.760544 14.7968 3.84932C14.1389 3.50916 13.4088 3.33241 12.6682 3.33404C10.0922 3.33697 8.00465 5.42447 8.00172 8.00057C3.58355 8.00057 0.00195312 11.5822 0.00195312 16.0003C0.00195312 20.4185 3.58355 24.0001 8.00172 24.0001H9.33501C9.70317 24.0001 10.0017 23.7016 10.0017 23.3335C10.0017 22.9653 9.70317 22.6668 9.33501 22.6668H8.00172C4.31986 22.6668 1.33525 19.6819 1.33525 16.0003C1.33525 12.3185 4.31986 9.33386 8.00172 9.33386C8.22209 9.33354 8.44246 9.34558 8.66153 9.36967C8.87441 9.39376 9.08567 9.31401 9.22955 9.15548C9.37342 8.99696 9.43234 8.77919 9.3884 8.56989C9.35129 8.38239 9.33371 8.19164 9.33501 8.00057C9.33729 6.16045 10.8281 4.66928 12.6682 4.66733C13.3701 4.66375 14.0543 4.88705 14.6187 5.30371C14.773 5.41763 14.9683 5.45963 15.1555 5.41926C15.3426 5.37857 15.5035 5.25976 15.5969 5.09245C17.2235 2.17554 20.6156 0.726365 23.8479 1.56749C27.0799 2.40861 29.3357 5.32714 29.3344 8.66721C29.3344 8.74436 29.3344 8.82248 29.3295 8.90093C29.3149 9.11772 29.406 9.32768 29.5747 9.46439C29.7429 9.60143 29.9675 9.64765 30.1762 9.58841C32.1872 9.01616 34.3499 9.42045 36.0182 10.6802C37.6867 11.9402 38.6675 13.9096 38.6675 16.0003C38.687 19.4543 36.0487 22.3433 32.6068 22.6359C32.431 22.6522 31.0137 22.6668 30.6677 22.6668C30.2996 22.6668 30.0011 22.9653 30.0011 23.3335C30.0011 23.7016 30.2996 24.0001 30.6677 24.0001C30.7771 24.0001 32.4509 23.9894 32.7269 23.964C36.9725 23.5603 40.1547 19.897 39.9611 15.6367C39.7674 11.3764 36.2655 8.01717 32.001 8.00057Z" fill="black"></path></g><defs><clipPath id="clip0_510_10"><rect width="40" height="40" fill="white"></rect></clipPath></defs></svg>