<svg xmlns="http://www.w3.org/2000/svg" width="43" height="43" viewBox="0 0 43 43" fill="none"><g clip-path="url(#clip0_510_7)"><path d="M14.1094 42.3281H39.6406C41.1248 42.3281 42.3281 41.1248 42.3281 39.6406V18.1406C42.3281 16.6565 41.1248 15.4531 39.6406 15.4531H14.1094C12.6252 15.4531 11.4219 16.6565 11.4219 18.1406V39.6406C11.4219 41.1248 12.6252 42.3281 14.1094 42.3281Z" fill="#EDEDEF"></path><path d="M11.4219 18.1406C11.4219 16.6565 12.6252 15.4531 14.1094 15.4531H31.5781V3.35938C31.5781 1.8752 30.3748 0.671875 28.8906 0.671875H3.35938C1.8752 0.671875 0.671875 1.8752 0.671875 3.35938V24.8594C0.671875 26.3435 1.8752 27.5469 3.35938 27.5469H11.4219V18.1406Z" fill="#FFDD5B"></path><path d="M26.9707 24.7024L25.8379 27.1292L32.0937 39.6402H36.7028C37.6857 39.6402 38.3361 38.6189 37.9202 37.728L31.8418 24.7024C30.8763 22.6344 27.9355 22.6344 26.9707 24.7024Z" fill="#9BC9FF"></path><path d="M20.955 26.9787L15.5968 37.6951C15.15 38.5887 15.7997 39.6402 16.7987 39.6402H32.0933L25.7629 26.9787C24.7719 24.998 21.9453 24.998 20.955 26.9787Z" fill="#9BC9FF"></path><path d="M22.0156 22.1719C23.1288 22.1719 24.0312 21.2694 24.0312 20.1562C24.0312 19.0431 23.1288 18.1406 22.0156 18.1406C20.9024 18.1406 20 19.0431 20 20.1562C20 21.2694 20.9024 22.1719 22.0156 22.1719Z" fill="#FFDD5B"></path><path d="M39.6406 14.7812H32.25V3.35938C32.25 1.50702 30.743 0 28.8906 0H3.35938C1.50702 0 0 1.50702 0 3.35938V24.8594C0 26.7117 1.50702 28.2188 3.35938 28.2188H10.75V39.6406C10.75 41.493 12.257 43 14.1094 43H39.6406C41.493 43 43 41.493 43 39.6406V18.1406C43 16.2883 41.493 14.7812 39.6406 14.7812ZM3.35938 26.875C2.24809 26.875 1.34375 25.9707 1.34375 24.8594V3.35938C1.34375 2.24809 2.24809 1.34375 3.35938 1.34375H28.8906C30.0019 1.34375 30.9062 2.24809 30.9062 3.35938V14.7812H14.1094C12.257 14.7812 10.75 16.2883 10.75 18.1406V26.875H3.35938ZM41.6562 39.6406C41.6562 40.7519 40.7519 41.6562 39.6406 41.6562H14.1094C12.9981 41.6562 12.0938 40.7519 12.0938 39.6406V18.1406C12.0938 17.0293 12.9981 16.125 14.1094 16.125H39.6406C40.7519 16.125 41.6562 17.0293 41.6562 18.1406V39.6406Z" fill="black"></path><path d="M34.9375 6.71875H37.625C37.9959 6.71875 38.2969 7.01975 38.2969 7.39062V9.79997L38.1 9.60311C37.8373 9.34041 37.4127 9.34041 37.15 9.60311C36.8873 9.86581 36.8873 10.2904 37.15 10.5531L38.4931 11.8962C38.5549 11.9587 38.6295 12.0078 38.7121 12.042C38.7941 12.0763 38.8814 12.0938 38.9688 12.0938C39.0561 12.0938 39.1434 12.0763 39.2254 12.042C39.308 12.0078 39.3826 11.9587 39.4444 11.8962L40.7875 10.5531C41.0502 10.2904 41.0502 9.86581 40.7875 9.60311C40.5248 9.34041 40.1002 9.34041 39.8375 9.60311L39.6406 9.79997V7.39062C39.6406 6.27934 38.7363 5.375 37.625 5.375H34.9375C34.566 5.375 34.2656 5.67533 34.2656 6.04688C34.2656 6.41842 34.566 6.71875 34.9375 6.71875Z" fill="black"></path><path d="M8.06267 36.2814H5.37517C5.00497 36.2814 4.70329 35.9804 4.70329 35.6095V33.2002L4.90015 33.397C5.03117 33.528 5.20317 33.5939 5.37517 33.5939C5.54717 33.5939 5.71917 33.528 5.85018 33.397C6.11289 33.1343 6.11289 32.7097 5.85018 32.447L4.50711 31.1039C4.44529 31.0414 4.37072 30.9924 4.28807 30.9581C4.12414 30.8903 3.9387 30.8903 3.77476 30.9581C3.69212 30.9924 3.61821 31.0414 3.55573 31.1039L2.21265 32.447C1.94995 32.7097 1.94995 33.1343 2.21265 33.397C2.47536 33.6597 2.89998 33.6597 3.16268 33.397L3.35954 33.2002V35.6095C3.35954 36.7208 4.26389 37.6251 5.37517 37.6251H8.06267C8.43354 37.6251 8.73454 37.3248 8.73454 36.9533C8.73454 36.5817 8.43354 36.2814 8.06267 36.2814Z" fill="black"></path><path d="M32.4497 24.4195C31.8914 23.2236 30.725 22.4805 29.4054 22.4805C28.0859 22.4805 26.9195 23.2229 26.3612 24.4195L25.7182 25.7975C25.1007 25.1841 24.2649 24.8226 23.3586 24.8226C22.078 24.8226 20.9264 25.5341 20.3539 26.6797L14.9957 37.3961C14.6813 38.0256 14.7142 38.7587 15.0838 39.3573C15.4533 39.9553 16.0943 40.3127 16.7977 40.3127H32.0923H36.7007C37.3934 40.3127 38.0296 39.9633 38.4012 39.3795C38.7727 38.7956 38.8197 38.072 38.5275 37.4445L32.4497 24.4195ZM16.7977 38.969C16.4598 38.969 16.2857 38.7459 16.2259 38.6505C16.1668 38.5544 16.0452 38.2991 16.197 37.9961L21.5552 27.2797C21.904 26.5823 22.5778 26.1657 23.3579 26.1657C24.1379 26.1657 24.8118 26.5823 25.1605 27.2797L31.0052 38.969H16.7977ZM37.2684 38.6579C37.1421 38.8554 36.9358 38.969 36.7013 38.969H32.5082L26.5836 27.1198L27.5786 24.9872C27.9186 24.2589 28.6012 23.8242 29.4054 23.8242C30.2097 23.8242 30.8923 24.2589 31.2323 24.9872L37.3107 38.0129C37.4095 38.2259 37.394 38.4603 37.2684 38.6579Z" fill="black"></path><path d="M22.0156 22.8438C23.4978 22.8438 24.7031 21.6384 24.7031 20.1562C24.7031 18.6741 23.4978 17.4688 22.0156 17.4688C20.5335 17.4688 19.3281 18.6741 19.3281 20.1562C19.3281 21.6384 20.5335 22.8438 22.0156 22.8438ZM22.0156 18.8125C22.7567 18.8125 23.3594 19.4152 23.3594 20.1562C23.3594 20.8973 22.7567 21.5 22.0156 21.5C21.2745 21.5 20.6719 20.8973 20.6719 20.1562C20.6719 19.4152 21.2745 18.8125 22.0156 18.8125Z" fill="black"></path></g><defs><clipPath id="clip0_510_7"><rect width="43" height="43" fill="white"></rect></clipPath></defs></svg>